<?xml version="1.0" standalone="no"?>
<!DOCTYPE svg PUBLIC "-//W3C//DTD SVG 20010904//EN"
 "http://www.w3.org/TR/2001/REC-SVG-20010904/DTD/svg10.dtd">
<svg version="1.0" xmlns="http://www.w3.org/2000/svg"
 width="225.000000pt" height="225.000000pt" viewBox="0 0 225.000000 225.000000"
 preserveAspectRatio="xMidYMid meet">

<g transform="translate(0.000000,225.000000) scale(0.100000,-0.100000)"
fill="#000" stroke="none">
<path d="M1205 2226 c-52 -52 -22 -89 94 -116 109 -26 216 -70 314 -128 92
-54 237 -187 309 -282 70 -92 152 -265 182 -384 25 -99 37 -123 66 -126 34 -5
50 1 65 24 19 28 10 80 -36 222 -120 367 -432 671 -800 777 -142 41 -164 43
-194 13z"/>
<path d="M355 2105 c-54 -21 -277 -242 -312 -309 -170 -331 239 -1076 816
-1486 179 -127 425 -247 587 -286 39 -10 112 -18 169 -18 144 -1 193 24 343
178 121 124 152 173 152 246 0 79 -30 124 -193 288 -160 162 -206 197 -274
208 -75 12 -128 -15 -241 -122 l-101 -95 -43 22 c-164 83 -408 323 -522 513
l-36 59 100 103 c84 88 102 112 115 158 17 57 12 105 -16 158 -24 45 -334 353
-375 373 -52 24 -120 28 -169 10z m214 -213 c53 -53 126 -130 164 -169 96
-102 96 -104 -48 -253 -92 -95 -115 -124 -115 -147 0 -42 58 -156 130 -253 80
-109 284 -310 380 -376 121 -83 210 -126 244 -120 20 4 67 43 142 116 157 153
142 155 342 -42 164 -162 189 -198 171 -245 -17 -46 -216 -240 -266 -259 -140
-54 -441 43 -727 233 -384 256 -707 668 -828 1055 -28 90 -32 256 -8 299 19
34 194 219 229 241 14 10 41 18 60 18 29 0 46 -12 130 -98z"/>
<path d="M1181 1815 c-22 -29 -21 -58 3 -82 6 -6 40 -18 75 -27 112 -28 188
-73 277 -161 90 -88 140 -174 169 -286 9 -35 21 -70 27 -76 17 -20 73 -16 93
7 17 19 18 26 6 83 -29 142 -101 267 -215 374 -40 37 -97 83 -128 101 -65 39
-177 79 -241 88 -39 6 -46 4 -66 -21z"/>
</g>
</svg>
