<svg xmlns="http://www.w3.org/2000/svg" width="16" height="13" viewBox="0 0 16 13">
    <g fill="none" fill-rule="evenodd">
        <g fill="#A0D1AF">
            <g>
                <g>
                    <g>
                        <g>
                            <path fill-rule="nonzero" d="M14.047 0H1.957C.877 0 0 .937 0 2.089v8.822C0 12.063.877 13 1.957 13h12.086c1.08 0 1.957-.937 1.957-2.089V2.092C16.003.94 15.126 0 14.047 0zm1.062 10.911c0 .626-.476 1.135-1.062 1.135H1.957c-.586 0-1.063-.51-1.063-1.135V2.092c0-.625.477-1.134 1.063-1.134h12.086c.586 0 1.063.509 1.063 1.134v8.82h.003z" transform="translate(-1001 -675) translate(70 527) translate(931 10) translate(0 115) translate(0 23)"/>
                            <path d="M10.035 6.392l3.814-3.59c.177-.17.193-.458.032-.648-.161-.186-.436-.203-.616-.034l-5.26 4.957-1.025-.962c-.003-.004-.007-.007-.007-.01-.022-.024-.045-.045-.07-.065L2.726 2.117c-.18-.17-.454-.153-.616.037-.161.19-.145.478.036.647l3.858 3.622L2.163 10.2c-.174.173-.184.461-.02.648.088.094.204.145.32.145.106 0 .213-.04.297-.122l3.9-3.832 1.059.993c.083.078.187.115.29.115.103 0 .21-.04.29-.118l1.088-1.023 3.878 3.869c.084.084.193.125.3.125.116 0 .229-.047.316-.142.164-.183.158-.475-.016-.647l-3.83-3.819z" transform="translate(-1001 -675) translate(70 527) translate(931 10) translate(0 115) translate(0 23)"/>
                        </g>
                    </g>
                </g>
            </g>
        </g>
    </g>
</svg>
