<svg xmlns="http://www.w3.org/2000/svg" width="15" height="19" viewBox="0 0 15 19">
    <g fill="none" fill-rule="evenodd">
        <g fill="#FFF">
            <g>
                <g>
                    <path d="M185.375 58.583c-.437 0-.792.355-.792.792v14.25c0 .437.355.792.792.792h9.5c.437 0 .792-.355.792-.792v-9.5H192.5c-1.312 0-2.375-1.063-2.375-2.375v-3.167h-4.75zm6.333 1.12l2.84 2.839H192.5c-.437 0-.792-.355-.792-.792v-2.047zM183 59.375c0-1.312 1.063-2.375 2.375-2.375h5.542c.21 0 .411.083.56.232l5.541 5.542c.149.148.232.35.232.56v10.291c0 1.312-1.063 2.375-2.375 2.375h-9.5c-1.312 0-2.375-1.063-2.375-2.375v-14.25zm3.958 8.708c0-.437.355-.791.792-.791h2.375c.437 0 .792.354.792.791 0 .437-.355.792-.792.792h-2.375c-.437 0-.792-.355-.792-.792zm0 3.167c0-.437.355-.792.792-.792h4.75c.437 0 .792.355.792.792 0 .437-.355.792-.792.792h-4.75c-.437 0-.792-.355-.792-.792z" transform="translate(-509 -678) translate(326 410) translate(0 211)"/>
                </g>
            </g>
        </g>
    </g>
</svg>
