<svg xmlns="http://www.w3.org/2000/svg" height="949pt" version="1.1" viewBox="0 -150 949.75 949" width="949pt">
<g id="surface1">
<path d="M 933.300781 506.574219 L 888.601562 506.574219 C 880.300781 492.375 868.5 480.574219 854.199219 472.273438 L 854.199219 443.273438 L 901.699219 443.273438 C 908.5 443.273438 914.601562 438.875 916.699219 432.476562 L 919.898438 422.773438 C 959.699219 302.574219 959.699219 172.773438 919.898438 52.574219 L 916.699219 42.875 C 914.601562 36.476562 908.5 32.074219 901.800781 32.074219 L 601.101562 32.074219 L 601.101562 16.175781 C 601.101562 7.476562 594 0.375 585.300781 0.375 C 576.601562 0.375 569.5 7.476562 569.5 16.175781 L 569.5 31.976562 L 474.601562 31.976562 L 474.601562 16.175781 C 474.601562 7.476562 467.5 0.375 458.800781 0.375 C 450.101562 0.375 443 7.476562 443 16.175781 L 443 31.976562 L 395.5 31.976562 C 388.699219 31.976562 382.601562 36.375 380.5 42.773438 L 377.300781 52.476562 C 337.5 172.675781 337.5 302.476562 377.300781 422.675781 L 380.5 432.375 C 382.699219 438.875 388.699219 443.175781 395.5 443.175781 L 443 443.175781 L 443 506.476562 L 316.398438 506.476562 L 316.398438 142.773438 C 316.398438 134.074219 309.300781 126.976562 300.601562 126.976562 L 79.101562 126.976562 C 73.398438 126.976562 68.101562 130.074219 65.300781 135.074219 L 2 248.773438 C 0.699219 251.175781 0 253.773438 0 256.476562 L 0 585.675781 C 0 594.375 7.101562 601.476562 15.800781 601.476562 L 76.101562 601.476562 C 102.101562 646.773438 160 662.375 205.300781 636.375 C 219.800781 628.074219 231.800781 615.976562 240.199219 601.476562 L 519.101562 601.476562 C 545.101562 646.773438 603 662.375 648.300781 636.375 C 662.800781 628.074219 674.800781 615.976562 683.199219 601.476562 L 724.699219 601.476562 C 750.699219 646.773438 808.601562 662.375 853.898438 636.375 C 868.398438 628.074219 880.398438 615.976562 888.800781 601.476562 L 933.300781 601.476562 C 942 601.476562 949.101562 594.375 949.101562 585.675781 L 949.101562 522.375 C 949.101562 513.675781 942.101562 506.574219 933.300781 506.574219 Z M 822.601562 460.476562 C 821.800781 460.375 821 460.476562 820.199219 460.273438 C 816.199219 459.675781 812.199219 459.375 808.199219 459.273438 C 807.699219 459.273438 807.199219 459.175781 806.699219 459.175781 C 806.199219 459.175781 805.800781 459.273438 805.300781 459.273438 C 801.199219 459.375 797.199219 459.675781 793.199219 460.273438 C 792.398438 460.375 791.601562 460.273438 790.898438 460.476562 L 790.898438 443.375 L 822.5 443.375 L 822.5 460.476562 Z M 725 506.574219 L 683.199219 506.574219 C 657.199219 461.273438 599.300781 445.675781 554 471.675781 C 548.199219 474.976562 542.800781 478.976562 537.800781 483.375 L 537.800781 443.273438 L 759.300781 443.273438 L 759.300781 472.273438 C 745.101562 480.574219 733.199219 492.375 725 506.574219 Z M 569.5 63.675781 L 569.5 79.476562 L 474.601562 79.476562 L 474.601562 63.675781 Z M 569.5 142.773438 L 474.601562 142.773438 L 474.601562 111.175781 L 569.5 111.175781 Z M 474.601562 174.375 L 569.5 174.375 L 569.5 205.976562 L 474.601562 205.976562 Z M 406.898438 63.675781 L 443 63.675781 L 443 253.476562 C 443 262.175781 450.101562 269.273438 458.800781 269.273438 C 467.5 269.273438 474.601562 262.175781 474.601562 253.476562 L 474.601562 237.675781 L 569.5 237.675781 L 569.5 253.476562 C 569.5 262.175781 576.601562 269.273438 585.300781 269.273438 C 594 269.273438 601.101562 262.175781 601.101562 253.476562 L 601.101562 63.675781 L 890.300781 63.675781 C 927.5 176.675781 927.5 298.675781 890.300781 411.675781 L 406.898438 411.675781 C 369.699219 298.675781 369.699219 176.675781 406.898438 63.675781 Z M 474.601562 443.273438 L 506.199219 443.273438 L 506.199219 506.574219 L 474.601562 506.574219 Z M 240.398438 506.574219 C 240.101562 506.074219 239.699219 505.574219 239.398438 504.976562 C 238.5 503.375 237.398438 501.976562 236.398438 500.476562 C 234.898438 498.273438 233.398438 496.175781 231.800781 494.175781 C 230.601562 492.773438 229.398438 491.375 228.101562 490.074219 C 226.398438 488.175781 224.601562 486.375 222.800781 484.675781 C 221.5 483.375 220.101562 482.175781 218.601562 481.074219 C 216.699219 479.476562 214.601562 477.875 212.601562 476.476562 C 211 475.476562 209.601562 474.375 208.101562 473.476562 C 205.898438 472.175781 203.699219 470.976562 201.398438 469.773438 C 199.800781 468.976562 198.199219 468.175781 196.699219 467.375 C 194.300781 466.273438 191.800781 465.375 189.199219 464.574219 C 187.601562 463.976562 186 463.375 184.5 462.976562 C 181.699219 462.175781 178.800781 461.574219 175.898438 461.074219 C 174.5 460.773438 173.101562 460.476562 171.699219 460.175781 C 162.898438 458.875 153.898438 458.875 145.101562 460.175781 C 143.699219 460.375 142.300781 460.773438 141 460.976562 C 138.101562 461.574219 135.101562 462.074219 132.300781 462.976562 C 130.699219 463.476562 129.101562 464.074219 127.699219 464.574219 C 125.101562 465.476562 122.5 466.375 120 467.476562 C 118.398438 468.175781 117 468.976562 115.5 469.675781 C 113.101562 470.875 110.800781 472.175781 108.398438 473.574219 C 107 474.476562 105.601562 475.375 104.300781 476.375 C 102.101562 477.976562 99.898438 479.574219 97.800781 481.375 C 96.601562 482.375 95.300781 483.476562 94.199219 484.574219 C 92.101562 486.476562 90.199219 488.574219 88.199219 490.675781 C 87.199219 491.773438 86.101562 492.976562 85 494.175781 C 83.101562 496.476562 81.398438 498.875 79.800781 501.273438 C 78.898438 502.476562 78.101562 503.773438 77.300781 504.976562 C 77 505.574219 76.5 506.074219 76.199219 506.574219 L 31.898438 506.574219 L 31.898438 380.074219 L 284.699219 380.074219 L 284.699219 506.675781 L 240.398438 506.675781 Z M 31.601562 260.574219 L 88.398438 158.574219 L 284.699219 158.574219 L 284.699219 348.375 L 31.601562 348.375 Z M 31.601562 569.875 L 31.601562 538.273438 L 64.601562 538.273438 C 64.601562 538.773438 64.601562 539.273438 64.5 539.875 C 62.898438 549.273438 62.898438 558.875 64.5 568.375 C 64.5 568.875 64.5 569.476562 64.601562 569.976562 Z M 158.199219 617.273438 C 133.101562 617.175781 110.300781 602.375 100.101562 579.476562 C 93.199219 563.273438 93.199219 544.875 100.101562 528.675781 C 114.199219 496.574219 151.601562 481.976562 183.699219 496.074219 C 198.300781 502.476562 209.898438 514.074219 216.300781 528.675781 C 223.199219 544.875 223.199219 563.175781 216.300781 579.273438 C 206.101562 602.375 183.398438 617.273438 158.199219 617.273438 Z M 251.800781 569.875 C 251.800781 569.375 251.800781 568.875 251.898438 568.273438 C 253.5 558.875 253.5 549.273438 251.898438 539.773438 C 251.898438 539.273438 251.898438 538.675781 251.800781 538.175781 L 507.5 538.175781 C 507.5 538.675781 507.5 539.175781 507.398438 539.773438 C 505.800781 549.175781 505.800781 558.773438 507.398438 568.273438 C 507.398438 568.773438 507.398438 569.375 507.5 569.875 Z M 601.101562 617.273438 C 576 617.175781 553.199219 602.375 543 579.476562 C 536.101562 563.273438 536.101562 544.875 543 528.675781 C 557.101562 496.574219 594.5 481.976562 626.601562 496.074219 C 641.101562 502.476562 652.699219 514.074219 659.101562 528.574219 C 666 544.773438 666 563.175781 659.101562 579.375 C 649 602.375 626.300781 617.273438 601.101562 617.273438 Z M 694.699219 569.875 C 694.699219 569.375 694.699219 568.875 694.800781 568.273438 C 696.398438 558.875 696.398438 549.273438 694.800781 539.773438 C 694.800781 539.273438 694.800781 538.675781 694.699219 538.175781 L 713.101562 538.175781 C 713.101562 538.675781 713.101562 539.175781 713 539.773438 C 711.398438 549.175781 711.398438 558.773438 713 568.273438 C 713 568.773438 713 569.375 713.101562 569.875 Z M 806.800781 617.273438 C 781.699219 617.175781 758.898438 602.375 748.699219 579.476562 C 734.699219 547.574219 749.101562 510.273438 781.101562 496.175781 C 781.199219 496.074219 781.300781 496.074219 781.5 495.976562 C 797.398438 488.976562 815.5 488.976562 831.5 495.875 C 831.699219 495.875 831.898438 495.976562 832.101562 496.074219 C 864.101562 510.074219 878.699219 547.476562 864.601562 579.476562 C 854.5 602.375 831.800781 617.273438 806.800781 617.273438 Z M 917.5 569.875 L 900.398438 569.875 C 900.398438 569.375 900.398438 568.875 900.5 568.273438 C 902.101562 558.875 902.101562 549.273438 900.5 539.773438 C 900.5 539.273438 900.5 538.675781 900.398438 538.175781 L 917.5 538.175781 Z M 917.5 569.875 " style=" stroke:none;fill-rule:nonzero;fill:rgb(0%,0%,0%);fill-opacity:1;" />
<path d="M 237.300781 190.175781 L 116.300781 190.175781 C 110.601562 190.175781 105.300781 193.273438 102.5 198.273438 L 65.300781 265.175781 C 64 267.574219 63.300781 270.175781 63.300781 272.875 L 63.300781 300.875 C 63.300781 309.574219 70.398438 316.675781 79.101562 316.675781 L 237.300781 316.675781 C 246 316.675781 253.101562 309.574219 253.101562 300.875 L 253.101562 205.976562 C 253.101562 197.273438 246 190.175781 237.300781 190.175781 Z M 221.5 285.074219 L 94.898438 285.074219 L 94.898438 276.976562 L 125.601562 221.773438 L 221.5 221.773438 Z M 221.5 285.074219 " style=" stroke:none;fill-rule:nonzero;fill:rgb(0%,0%,0%);fill-opacity:1;" />
<path d="M 189.800781 554.074219 C 189.800781 571.527344 175.652344 585.675781 158.199219 585.675781 C 140.746094 585.675781 126.601562 571.527344 126.601562 554.074219 C 126.601562 536.621094 140.746094 522.476562 158.199219 522.476562 C 175.652344 522.476562 189.800781 536.621094 189.800781 554.074219 Z M 189.800781 554.074219 " style=" stroke:none;fill-rule:nonzero;fill:rgb(0%,0%,0%);fill-opacity:1;" />
<path d="M 632.699219 554.074219 C 632.699219 571.527344 618.550781 585.675781 601.101562 585.675781 C 583.648438 585.675781 569.5 571.527344 569.5 554.074219 C 569.5 536.621094 583.648438 522.476562 601.101562 522.476562 C 618.550781 522.476562 632.699219 536.621094 632.699219 554.074219 Z M 632.699219 554.074219 " style=" stroke:none;fill-rule:nonzero;fill:rgb(0%,0%,0%);fill-opacity:1;" />
<path d="M 838.398438 554.074219 C 838.398438 571.527344 824.253906 585.675781 806.800781 585.675781 C 789.347656 585.675781 775.199219 571.527344 775.199219 554.074219 C 775.199219 536.621094 789.347656 522.476562 806.800781 522.476562 C 824.253906 522.476562 838.398438 536.621094 838.398438 554.074219 Z M 838.398438 554.074219 " style=" stroke:none;fill-rule:nonzero;fill:rgb(0%,0%,0%);fill-opacity:1;" />
</g>
</svg>