<svg xmlns="http://www.w3.org/2000/svg" x="0px" y="0px"
width="64" height="64"
viewBox="0 0 172 172"
style=" fill:#fff;"><g fill="none" fill-rule="nonzero" stroke="none" stroke-width="1" stroke-linecap="butt" stroke-linejoin="miter" stroke-miterlimit="10" stroke-dasharray="" stroke-dashoffset="0" font-family="none" font-weight="none" font-size="none" text-anchor="none" style="mix-blend-mode: normal"><path d="M0,172v-172h172v172z" fill="none"></path><g fill="#FFFFFF"><path d="M75.75391,5.68994c-0.69287,-0.0105 -1.38574,0.24145 -1.92114,0.75586l-7.73706,7.47461c-1.0603,1.02881 -1.0918,2.72949 -0.05249,3.80029c0.5249,0.5354 1.21777,0.81885 1.93164,0.81885c0.67188,0 1.34375,-0.25195 1.85815,-0.75586l7.73706,-7.47461c1.0708,-1.02881 1.0918,-2.72949 0.06299,-3.80029c-0.5144,-0.5249 -1.19678,-0.79785 -1.87915,-0.81885zM42.27564,16.125c-5.8999,0 -11.11743,1.88965 -14.30884,5.18604l-0.31494,0.31494c-3.84229,3.92627 -12.84961,13.13306 -12.84961,31.22119c0,15.52661 9.22778,30.52832 14.71826,38.09741l0.20996,0.27295c0.12598,0.16797 0.34643,0.49341 0.67188,0.96582c17.44776,25.44727 39.01074,44.44873 60.7417,53.49805c19.28491,8.04151 29.48901,10.18311 36.47021,10.18311c2.94995,0 5.32251,-0.37793 7.56909,-0.86084c10.01514,-2.17309 22.44483,-9.54272 25.74121,-18.93848c2.6875,-7.63208 3.51685,-16.21948 1.86865,-19.11694c-1.0918,-1.93164 -3.10742,-2.90796 -5.8999,-4.26221c-0.60889,-0.29395 -1.27026,-0.60889 -1.98413,-0.97632c-0.20996,-0.10498 -20.62866,-10.33008 -24.39746,-11.64233c-4.73462,-1.80566 -8.93384,-0.5249 -11.8313,3.60083l-1.48022,2.09961c-2.86597,4.04175 -5.57446,7.86304 -7.76855,10.2356c-1.39624,1.50122 -3.78979,1.43823 -5.53247,0.71387l-1.12329,-0.46191c-4.69263,-1.91065 -14.45581,-5.87891 -26.52857,-16.6919c-9.6582,-8.65039 -16.58691,-19.62085 -19.10645,-23.90405c-1.0498,-1.80566 -0.60889,-2.45654 1.18628,-4.57715c0.96582,-1.20728 1.91065,-2.21509 2.85547,-3.2229c0.78735,-0.82935 1.56421,-1.65869 2.35156,-2.58252l0.36743,-0.40942c1.58521,-1.85815 2.72949,-3.19141 3.90527,-5.70044c1.97363,-3.86328 0.13647,-7.70557 -0.46191,-8.97583c-0.59839,-1.24927 -4.74512,-11.36938 -7.76855,-18.76001l-3.06543,-7.47461l-0.0105,-0.0105c-2.85547,-6.88672 -5.71094,-7.4956 -10.01514,-7.67407c-1.24927,-0.07349 -2.65601,-0.14697 -4.20972,-0.14697zM93.34863,20.28223c-0.34643,0 -0.70337,0.06299 -1.0498,0.19946l-14.94922,6.03638c-1.38574,0.5564 -2.03662,2.1311 -1.48022,3.50635c0.41992,1.0498 1.42773,1.67969 2.48804,1.67969c0.33594,0 0.67188,-0.06299 1.00781,-0.19946l14.94922,-6.03637c1.37524,-0.5564 2.03662,-2.12061 1.48022,-3.50635c-0.40942,-1.02881 -1.39624,-1.65869 -2.44604,-1.67969zM43.23096,21.521c1.0603,0.02099 2.05762,0.06299 2.99194,0.11548c2.94995,0.12598 3.56934,0.14697 5.31201,4.35669l3.06543,7.47461c4.09424,10.00464 7.27515,17.7522 7.88403,19.03296c0.91333,1.91065 1.0708,3.17041 0.50391,4.3042c-0.91333,1.93164 -1.66919,2.80298 -3.15991,4.54565l-0.12598,0.15747zM37.71948,22.00391c0.04199,0.17847 0.03149,0.35693 0.10498,0.5249l17.85718,43.36743c-0.5144,0.57739 -1.03931,1.18628 -1.5957,1.86865c-1.71118,2.02612 -4.58765,5.41699 -1.5957,10.59253c3.29639,5.62695 10.30908,16.38745 20.16675,25.21631c12.76563,11.43237 23.50513,15.79956 28.08228,17.65771l1.0813,0.45142c4.23071,1.76367 8.76587,0.97632 11.55835,-2.02612c1.54321,-1.66919 3.2544,-3.91577 5.03906,-6.37232l38.05542,19.02246c-0.18896,0.65088 -0.37793,1.30176 -0.61938,1.98413c-2.51953,7.17017 -13.28003,13.60547 -21.80445,15.45313c-5.34351,1.14429 -12.68164,2.71899 -40.8374,-9.02832c-20.77564,-8.66089 -41.50928,-26.96948 -58.36914,-51.56641c-0.39893,-0.57739 -0.68237,-0.97632 -0.78735,-1.12329l-0.17847,-0.25195c-5.11255,-7.03369 -13.69995,-20.92261 -13.69995,-34.9375c0,-15.89404 7.64258,-23.70459 11.31689,-27.45239l0.32544,-0.33594c1.36474,-1.40674 3.44336,-2.45654 5.8999,-3.04443zM80.03711,43.0105c-1.49072,0 -2.6875,1.20728 -2.6875,2.6875c0,1.49072 1.19678,2.6875 2.6875,2.6875h10.75c1.48022,0 2.6875,-1.19678 2.6875,-2.6875c0,-1.48022 -1.20728,-2.6875 -2.6875,-2.6875zM47.43018,82.39917c-0.34644,0.04199 -0.69287,0.15747 -1.00781,0.34644c-1.28076,0.75586 -1.71118,2.40405 -0.95532,3.67432c0.88184,1.51172 2.45654,3.82129 4.22021,6.19385c0.5249,0.71387 1.34375,1.0813 2.1626,1.0813c0.5564,0 1.11279,-0.16797 1.5957,-0.5249c1.19678,-0.88184 1.44873,-2.57202 0.5564,-3.7583c-2.44604,-3.30688 -3.60083,-5.20703 -3.90527,-5.71094c-0.5564,-0.96582 -1.6272,-1.43823 -2.6665,-1.30176zM59.29297,97.2959c-0.69287,-0.04199 -1.39624,0.17847 -1.94214,0.67188c-1.11279,0.97632 -1.21777,2.677 -0.23096,3.78979c3.10742,3.50635 6.27783,6.71875 9.42725,9.53223c7.38013,6.61377 14.80224,11.86279 22.06689,15.6001c0.38843,0.19946 0.81885,0.29395 1.22827,0.29395c0.97632,0 1.91064,-0.5249 2.38305,-1.45923c0.69287,-1.31226 0.16797,-2.93945 -1.14429,-3.61133c-6.86572,-3.53784 -13.90991,-8.52441 -20.9541,-14.82324c-2.99194,-2.6875 -6.01538,-5.74243 -8.98633,-9.10181c-0.49341,-0.5459 -1.16528,-0.86084 -1.84766,-0.89233zM126.18652,104.65503c0.73486,-0.05249 1.54321,0.10498 2.47754,0.45142c2.88696,1.00781 18.69702,8.82886 23.80957,11.41138c0.74536,0.36743 1.43823,0.70337 2.07861,1.01831c1.46973,0.70337 3.29639,1.58521 3.50635,1.93164c0.28345,0.76636 0.35693,3.59033 -0.29395,7.47461l-36.16577,-18.08814l1.48022,-2.07861c0.92383,-1.32276 1.90015,-2.01562 3.10742,-2.12061z"></path></g></g></svg>