<svg xmlns="http://www.w3.org/2000/svg" width="16" height="16" viewBox="0 0 16 16">
    <g fill="#fff" fill-rule="evenodd">
        <g fill="#fff">
            <g>
                <g>
                    <g>
                        <g>
                            <path fill-rule="nonzero" d="M12.627 9.942c-.327-.34-.722-.521-1.14-.521-.416 0-.814.178-1.155.517l-1.067 1.059c-.087-.047-.175-.091-.26-.135-.121-.06-.236-.117-.334-.178-.999-.632-1.907-1.455-2.777-2.52-.422-.53-.706-.978-.912-1.431.277-.252.534-.515.783-.767l.284-.285c.709-.706.709-1.62 0-2.325l-.922-.918c-.104-.104-.212-.212-.314-.319-.202-.208-.415-.423-.634-.625C3.852 1.171 3.46 1 3.049 1c-.413 0-.81.171-1.148.494l-.007.007L.746 2.653c-.432.43-.678.955-.732 1.563-.081.98.21 1.895.432 2.493.547 1.468 1.364 2.83 2.582 4.288 1.478 1.757 3.257 3.145 5.289 4.123.776.366 1.813.8 2.97.873.071.004.145.007.213.007.78 0 1.434-.279 1.947-.833.004-.007.01-.01.014-.017.175-.212.378-.403.59-.608.146-.138.294-.283.44-.434.333-.346.509-.75.509-1.162 0-.417-.179-.817-.52-1.153l-1.853-1.851zm1.209 3.538c-.004 0-.004.003 0 0-.132.141-.267.269-.412.41-.22.208-.442.427-.652.672-.34.363-.742.534-1.269.534-.05 0-.104 0-.155-.003-1.002-.064-1.934-.454-2.633-.787-1.91-.92-3.588-2.227-4.982-3.884-1.15-1.381-1.92-2.658-2.43-4.029C.99 5.556.875 4.905.925 4.29c.034-.393.186-.72.466-.998l1.151-1.146c.165-.155.34-.239.513-.239.213 0 .385.128.493.235l.01.01c.206.192.402.39.607.602l.321.326.922.917c.357.356.357.686 0 1.042-.098.097-.193.195-.29.289-.284.289-.554.558-.848.82-.007.007-.013.01-.017.017-.29.289-.236.57-.175.762l.01.03c.24.579.577 1.123 1.09 1.771l.003.004c.932 1.142 1.914 2.033 2.998 2.715.138.087.28.158.415.225.121.06.236.118.334.178l.04.024c.115.057.223.084.335.084.28 0 .455-.175.513-.232l1.154-1.15c.115-.114.297-.251.51-.251.209 0 .381.13.486.245l.006.007 1.86 1.851c.348.343.348.696.004 1.052z" transform="translate(-1001 -731) translate(70 527) translate(931 10) translate(0 115) translate(0 79)"/>
                            <path d="M8.39 3.938c.917.154 1.75.588 2.415 1.253.665.666 1.096 1.5 1.254 2.417.038.23.238.392.465.392.028 0 .053-.004.081-.007.26-.042.43-.287.389-.546-.19-1.11-.715-2.122-1.517-2.924-.801-.802-1.813-1.328-2.923-1.517-.26-.042-.501.13-.547.386-.045.255.123.504.382.546zM15.993 7.444c-.317-1.859-1.193-3.55-2.539-4.897C12.108 1.2 10.417.324 8.558.007c-.26-.046-.505.132-.552.392-.042.264.132.51.396.556 1.659.281 3.172 1.068 4.376 2.269C13.98 4.428 14.764 5.94 15.046 7.6c.039.235.242.399.473.399.029 0 .054-.004.082-.007.26-.04.438-.289.392-.549z" transform="translate(-1001 -731) translate(70 527) translate(931 10) translate(0 115) translate(0 79)"/>
                        </g>
                    </g>
                </g>
            </g>
        </g>
    </g>
</svg>
