<svg xmlns="http://www.w3.org/2000/svg" width="18" height="19" viewBox="0 0 18 19">
    <g fill="none" fill-rule="evenodd">
        <g fill="#FFF" fill-rule="nonzero">
            <g>
                <g>
                    <path d="M198.229 66.629c.426 0 .771.307.771.685v8.96c0 1.476-1.25 2.697-2.829 2.697H183.83c-1.58 0-2.829-1.22-2.829-2.697v-8.96c0-.378.345-.685.771-.685.426 0 .772.307.772.685v8.96c0 .746.593 1.326 1.286 1.326h12.342c.693 0 1.286-.58 1.286-1.326v-8.96c0-.378.346-.685.772-.685zm-7.821-4.478l.086.075 4.114 4.114c.302.301.302.79 0 1.091-.274.274-.702.299-1.004.075l-.087-.075-2.797-2.796v7.702c0 .233-.285.425-.657.458l-.114.005c-.388 0-.708-.171-.763-.394l-.009-.069v-7.703l-2.797 2.797c-.274.274-.703.299-1.005.075l-.086-.075c-.274-.274-.299-.702-.075-1.004l.075-.087 4.114-4.114c.274-.274.703-.299 1.005-.075z" transform="translate(-915 -682) translate(326 410) translate(408 211) rotate(90 190 70.486)"/>
                </g>
            </g>
        </g>
    </g>
</svg>
